<mxfile host="app.diagrams.net" modified="2024-06-05T12:59:00.718Z" agent="Mozilla/5.0 (Windows NT 10.0; Win64; x64) AppleWebKit/537.36 (KHTML, like Gecko) Chrome/125.0.0.0 Safari/537.36 Edg/125.0.0.0" version="24.4.8" etag="X_4TwwDi4ivoIwMqpCRC" type="github">
  <diagram name="PÃ¡gina-1" id="47qJrDeEIxcmU1Y4Cl_k">
    <mxGraphModel>
      <root>
        <mxCell id="0" />
        <mxCell id="1" parent="0" />
      </root>
    </mxGraphModel>
  </diagram>
</mxfile>
